Started on 2012-11-30 18:39:57 - 2012 Nov 30

Checking File ....
File : /mnt/array1/www/htdocs/wwwroot/files/conversion_queue/1354271335e994e.flv
File Exists : Yes
raw_output_for_stat : ffmpeg version N-44546-g66bdc58 Copyright (c) 2000-2012 the FFmpeg developers
  built on Sep 20 2012 14:29:12 with gcc 4.3.2 (Sourcery G++ Lite 2008q3-72)
  configuration: --prefix=/home/administrator/nas/usr/local --arch=arm --target-os=linux --enable-gpl --enable-libx264 --enable-libxvid --enable-cross-compile --cross-prefix=/usr/local/arm/4.3.2/bin/arm-linux- --extra-cflags=-I/home/administrator/nas/usr/local/include --extra-ldflags=-L/home/administrator/nas/usr/local/lib --extra-cflags=-static --extra-ldflags=-static --enable-libfaac --enable-nonfree
  libavutil      51. 73.101 / 51. 73.101
  libavcodec     54. 56.100 / 54. 56.100
  libavformat    54. 27.101 / 54. 27.101
  libavdevice    54.  2.100 / 54.  2.100
  libavfilter     3. 16.104 /  3. 16.104
  libswscale      2.  1.101 /  2.  1.101
  libswresample   0. 15.100 /  0. 15.100
  libpostproc    52.  0.100 / 52.  0.100
Input #0, flv, from '/mnt/array1/www/htdocs/wwwroot/files/conversion_queue/1354271335e994e.flv':
  Metadata:
    starttime       : 0
    totalduration   : 264
    totaldatarate   : 572
    bytelength      : 18876977
    canseekontime   : true
    sourcedata      : BCA28DD07HH1348547636047784
    purl            : 
    pmsg            : 
  Duration: 00:04:23.99, start: 0.000000, bitrate: 572 kb/s
    Stream #0:0: Video: h264 (Main), yuv420p, 854x480, 444 kb/s, 29.97 tbr, 1k tbn, 59.94 tbc
    Stream #0:1: Audio: aac, 44100 Hz, stereo, s16, 131 kb/s
Output #0, null, to '/dev/null':
  Metadata:
    starttime       : 0
    totalduration   : 264
    totaldatarate   : 572
    bytelength      : 18876977
    canseekontime   : true
    sourcedata      : BCA28DD07HH1348547636047784
    purl            : 
    pmsg            : 
    encoder         : Lavf54.27.101
    Stream #0:0: Video: h264, yuv420p, 854x480, q=2-31, 444 kb/s, 90k tbn, 29.97 tbc
    Stream #0:1: Audio: aac, 44100 Hz, stereo, 131 kb/s
Stream mapping:
  Stream #0:0 -> #0:0 (copy)
  Stream #0:1 -> #0:1 (copy)
Press [q] to stop, [?] for help
frame= 1048 fps=0.0 q=-1.0 size=       0kB time=00:00:34.96 bitrate=   0.0kbits/s    frame= 2096 fps=2092 q=-1.0 size=       0kB time=00:01:09.93 bitrate=   0.0kbits/s    frame= 2847 fps=1859 q=-1.0 size=       0kB time=00:01:35.01 bitrate=   0.0kbits/s    frame= 3589 fps=1758 q=-1.0 size=       0kB time=00:01:59.75 bitrate=   0.0kbits/s    frame= 4669 fps=1837 q=-1.0 size=       0kB time=00:02:35.78 bitrate=   0.0kbits/s    frame= 5464 fps=1785 q=-1.0 size=       0kB time=00:03:02.31 bitrate=   0.0kbits/s    frame= 6026 fps=1692 q=-1.0 size=       0kB time=00:03:21.06 bitrate=   0.0kbits/s    frame= 6530 fps=1608 q=-1.0 size=       0kB time=00:03:37.89 bitrate=   0.0kbits/s    frame= 7103 fps=1554 q=-1.0 size=       0kB time=00:03:57.00 bitrate=   0.0kbits/s    frame= 7895 fps=1557 q=-1.0 size=       0kB time=00:04:23.43 bitrate=   0.0kbits/s    frame= 7913 fps=1559 q=-1.0 Lsize=       0kB time=00:04:24.17 bitrate=   0.0kbits/s    
video:13962kB audio:4128kB subtitle:0 global headers:0kB muxing overhead -100.000000%


Preparing file...
format : flv
duration : 263.99
size : 18876977
bitrate : 558
video_width : 854
video_height : 480
video_wh_ratio : 1.77916666667
video_codec : h264
video_rate : 29.9746202508
video_bitrate : 423
video_color : N/A
audio_codec : aac
audio_bitrate : 125
audio_rate : 44100
audio_channels : stereo
path : /mnt/array1/www/htdocs/wwwroot/files/conversion_queue/1354271335e994e.flv

Converting Video
Conversion Command : /usr/local/bin/ffmpeg -i /mnt/array1/www/htdocs/wwwroot/files/conversion_queue/1354271335e994e.flv  -f flv  -vcodec libx264 -r 25  -ab 128000  -ar 22050  /mnt/array1/www/htdocs/wwwroot/files/videos/1354271335e994e.flv  2> /mnt/array1/www/htdocs/wwwroot/files/temp/135427200581bdc.tmp


Conversion Details

Flv Quick Conv;raw_output_for_stat : ffmpeg version N-44546-g66bdc58 Copyright (c) 2000-2012 the FFmpeg developers
  built on Sep 20 2012 14:29:12 with gcc 4.3.2 (Sourcery G++ Lite 2008q3-72)
  configuration: --prefix=/home/administrator/nas/usr/local --arch=arm --target-os=linux --enable-gpl --enable-libx264 --enable-libxvid --enable-cross-compile --cross-prefix=/usr/local/arm/4.3.2/bin/arm-linux- --extra-cflags=-I/home/administrator/nas/usr/local/include --extra-ldflags=-L/home/administrator/nas/usr/local/lib --extra-cflags=-static --extra-ldflags=-static --enable-libfaac --enable-nonfree
  libavutil      51. 73.101 / 51. 73.101
  libavcodec     54. 56.100 / 54. 56.100
  libavformat    54. 27.101 / 54. 27.101
  libavdevice    54.  2.100 / 54.  2.100
  libavfilter     3. 16.104 /  3. 16.104
  libswscale      2.  1.101 /  2.  1.101
  libswresample   0. 15.100 /  0. 15.100
  libpostproc    52.  0.100 / 52.  0.100
Input #0, flv, from '/mnt/array1/www/htdocs/wwwroot/files/videos/1354271335e994e.flv':
  Metadata:
    starttime       : 0
    totalduration   : 264
    totaldatarate   : 572
    bytelength      : 18876977
    canseekontime   : true
    sourcedata      : BCA28DD07HH1348547636047784
    purl            : 
    pmsg            : 
  Duration: 00:04:23.99, start: 0.000000, bitrate: 572 kb/s
    Stream #0:0: Video: h264 (Main), yuv420p, 854x480, 444 kb/s, 29.97 tbr, 1k tbn, 59.94 tbc
    Stream #0:1: Audio: aac, 44100 Hz, stereo, s16, 131 kb/s
Output #0, null, to '/dev/null':
  Metadata:
    starttime       : 0
    totalduration   : 264
    totaldatarate   : 572
    bytelength      : 18876977
    canseekontime   : true
    sourcedata      : BCA28DD07HH1348547636047784
    purl            : 
    pmsg            : 
    encoder         : Lavf54.27.101
    Stream #0:0: Video: h264, yuv420p, 854x480, q=2-31, 444 kb/s, 90k tbn, 29.97 tbc
    Stream #0:1: Audio: aac, 44100 Hz, stereo, 131 kb/s
Stream mapping:
  Stream #0:0 -> #0:0 (copy)
  Stream #0:1 -> #0:1 (copy)
Press [q] to stop, [?] for help
frame=  696 fps=0.0 q=-1.0 size=       0kB time=00:00:23.22 bitrate=   0.0kbits/s    frame= 1411 fps=1378 q=-1.0 size=       0kB time=00:00:47.09 bitrate=   0.0kbits/s    frame= 2053 fps=1322 q=-1.0 size=       0kB time=00:01:08.50 bitrate=   0.0kbits/s    frame= 2634 fps=1277 q=-1.0 size=       0kB time=00:01:27.88 bitrate=   0.0kbits/s    frame= 3499 fps=1365 q=-1.0 size=       0kB time=00:01:56.75 bitrate=   0.0kbits/s    frame= 4339 fps=1416 q=-1.0 size=       0kB time=00:02:24.79 bitrate=   0.0kbits/s    frame= 5131 fps=1440 q=-1.0 size=       0kB time=00:02:51.20 bitrate=   0.0kbits/s    frame= 5918 fps=1456 q=-1.0 size=       0kB time=00:03:17.48 bitrate=   0.0kbits/s    frame= 6409 fps=1396 q=-1.0 size=       0kB time=00:03:33.85 bitrate=   0.0kbits/s    frame= 6816 fps=1333 q=-1.0 size=       0kB time=00:03:47.43 bitrate=   0.0kbits/s    frame= 7397 fps=1313 q=-1.0 size=       0kB time=00:04:06.81 bitrate=   0.0kbits/s    frame= 7913 fps=1309 q=-1.0 Lsize=       0kB time=00:04:24.17 bitrate=   0.0kbits/s    
video:13962kB audio:4128kB subtitle:0 global headers:0kB muxing overhead -100.000000%

raw_output_for_stat : ffmpeg version N-44546-g66bdc58 Copyright (c) 2000-2012 the FFmpeg developers
  built on Sep 20 2012 14:29:12 with gcc 4.3.2 (Sourcery G++ Lite 2008q3-72)
  configuration: --prefix=/home/administrator/nas/usr/local --arch=arm --target-os=linux --enable-gpl --enable-libx264 --enable-libxvid --enable-cross-compile --cross-prefix=/usr/local/arm/4.3.2/bin/arm-linux- --extra-cflags=-I/home/administrator/nas/usr/local/include --extra-ldflags=-L/home/administrator/nas/usr/local/lib --extra-cflags=-static --extra-ldflags=-static --enable-libfaac --enable-nonfree
  libavutil      51. 73.101 / 51. 73.101
  libavcodec     54. 56.100 / 54. 56.100
  libavformat    54. 27.101 / 54. 27.101
  libavdevice    54.  2.100 / 54.  2.100
  libavfilter     3. 16.104 /  3. 16.104
  libswscale      2.  1.101 /  2.  1.101
  libswresample   0. 15.100 /  0. 15.100
  libpostproc    52.  0.100 / 52.  0.100
Input #0, flv, from '/mnt/array1/www/htdocs/wwwroot/files/videos/1354271335e994e.flv':
  Metadata:
    starttime       : 0
    totalduration   : 264
    totaldatarate   : 572
    bytelength      : 18876977
    canseekontime   : true
    sourcedata      : BCA28DD07HH1348547636047784
    purl            : 
    pmsg            : 
  Duration: 00:04:23.99, start: 0.000000, bitrate: 572 kb/s
    Stream #0:0: Video: h264 (Main), yuv420p, 854x480, 444 kb/s, 29.97 tbr, 1k tbn, 59.94 tbc
    Stream #0:1: Audio: aac, 44100 Hz, stereo, s16, 131 kb/s
Output #0, null, to '/dev/null':
  Metadata:
    starttime       : 0
    totalduration   : 264
    totaldatarate   : 572
    bytelength      : 18876977
    canseekontime   : true
    sourcedata      : BCA28DD07HH1348547636047784
    purl            : 
    pmsg            : 
    encoder         : Lavf54.27.101
    Stream #0:0: Video: h264, yuv420p, 854x480, q=2-31, 444 kb/s, 90k tbn, 29.97 tbc
    Stream #0:1: Audio: aac, 44100 Hz, stereo, 131 kb/s
Stream mapping:
  Stream #0:0 -> #0:0 (copy)
  Stream #0:1 -> #0:1 (copy)
Press [q] to stop, [?] for help
frame=  879 fps=0.0 q=-1.0 size=       0kB time=00:00:29.32 bitrate=   0.0kbits/s    frame= 1957 fps=1952 q=-1.0 size=       0kB time=00:01:05.29 bitrate=   0.0kbits/s    frame= 3138 fps=2076 q=-1.0 size=       0kB time=00:01:44.70 bitrate=   0.0kbits/s    frame= 4178 fps=2076 q=-1.0 size=       0kB time=00:02:19.41 bitrate=   0.0kbits/s    frame= 5261 fps=2094 q=-1.0 size=       0kB time=00:02:55.54 bitrate=   0.0kbits/s    frame= 6312 fps=2088 q=-1.0 size=       0kB time=00:03:30.61 bitrate=   0.0kbits/s    frame= 7223 fps=2035 q=-1.0 size=       0kB time=00:04:01.00 bitrate=   0.0kbits/s    frame= 7913 fps=2011 q=-1.0 Lsize=       0kB time=00:04:24.17 bitrate=   0.0kbits/s    
video:13962kB audio:4128kB subtitle:0 global headers:0kB muxing overhead -100.000000%



output_format : flv
output_duration : 263.99
output_size : 18876977
output_bitrate : 558
output_video_width : 854
output_video_height : 480
output_video_wh_ratio : 1.77916666667
output_video_codec : h264
output_video_rate : 29.9746202508
output_video_bitrate : 423
output_video_color : N/A
output_audio_codec : aac
output_audio_bitrate : 125
output_audio_rate : 44100
output_audio_channels : stereo
output_path : /mnt/array1/www/htdocs/wwwroot/files/videos/1354271335e994e.flv


Time Took : 19.4416 seconds

conversion_status : completed
